# xmcd CD database file
#
# Track frame offsets:
#	150
#	30047
#	57362
#	82795
#	115386
#	136488
#	165302
#	190380
#	212650
#	243419
#
# Disc length: 3779 seconds
#
# Revision: 2
# Processed by: cddbd v1.5.1PL2 Copyright (c) Steve Scherf et al.
# Submitted via: CDex 1.51
#
DISCID=7a0ec10a
DTITLE=DanielFreedman - trio
DYEAR=2001
DGENRE=Jazz
TTITLE0=Fareed
TTITLE1=Rise Up
TTITLE2=Open Hearts
TTITLE3=Freak of Nature
TTITLE4=Night Poem
TTITLE5=Alach Ya Ghazali
TTITLE6=You Are so Beautiful
TTITLE7=Montuno Picasso
TTITLE8=Cypresses
TTITLE9=Yes
EXTD=YEAR: 2001
EXTT0=
EXTT1=
EXTT2=
EXTT3=
EXTT4=
EXTT5=
EXTT6=
EXTT7=
EXTT8=
EXTT9=
PLAYORDER=
